<?xml version="1.0" ?><!DOCTYPE svg  PUBLIC '-//W3C//DTD SVG 1.1//EN'  'http://www.w3.org/Graphics/SVG/1.1/DTD/svg11.dtd'><svg height="512px" style="enable-background:new 0 0 512 512;" version="1.1" viewBox="0 0 512 512" width="512px" xml:space="preserve" xmlns="http://www.w3.org/2000/svg" xmlns:xlink="http://www.w3.org/1999/xlink"><g id="_x31__x2C__Acrobat_x2C__Adobe"><g><rect height="510.575" style="fill:#F1F1F1;" width="510.576" x="1.207" y="0.712"/><rect height="465.646" style="fill:#DC1D00;" width="465.646" x="23.669" y="23.179"/><g><g><g id="Acrobat_Distiller_9_"><g id="XMLID_217_"><g><path d="M434.43,316.246c-0.256-2.552-2.553-32.163-55.141-30.888         c-52.589,1.274-65.352,4.595-65.352,4.595s-39.317-39.826-53.611-70.714c0,0,17.357-50.802,16.59-82.714         c-0.763-31.91-8.425-50.291-32.929-50.036c-24.508,0.255-28.084,21.7-24.858,53.62c2.894,28.638,17.708,62.279,17.708,62.279         s-11.315,35.231-26.294,70.291c-14.975,35.057-25.186,53.44-25.186,53.44s-50.633,16.932-72.588,37.358         c-21.956,20.421-30.876,36.112-19.318,51.821c9.956,13.53,44.85,16.595,75.994-24.253         c31.144-40.844,45.185-66.375,45.185-66.375s47.53-13.02,62.313-16.595c14.783-3.571,32.653-6.38,32.653-6.38         s43.4,43.651,85.267,42.122C436.728,342.289,434.686,318.799,434.43,316.246z M104.342,408.408         c-26.039-15.576,54.634-63.566,69.184-65.1C173.525,343.309,131.604,424.71,104.342,408.408z M228.159,128.356         c0-25.271,8.17-32.167,14.55-32.167c6.383,0,13.531,3.065,13.786,25.02c0.255,21.953-13.786,64.841-13.786,64.841         C237.859,180.944,228.159,153.627,228.159,128.356z M261.775,301.442c-26.125,6.379-39.233,13.019-39.233,13.019         s0,0,10.722-23.997s21.7-56.675,21.7-56.675c14.805,27.572,44.164,59.995,44.164,59.995S287.894,295.058,261.775,301.442z          M324.574,299.229c0,0,84.926-15.397,84.926,13.617C409.5,341.854,356.907,330.032,324.574,299.229z" style="fill:#F1F1F1;"/></g></g></g></g></g></g></g><g id="Layer_1"/></svg>